<svg width="229" height="54" viewBox="0 0 229 54" fill="none" xmlns="http://www.w3.org/2000/svg">
<path d="M0.96875 3.07812V1H13.3516V3.07812H8.35938V17H5.95313V3.07812H0.96875ZM14.6543 17V5H16.9121V6.90625H17.0371C17.2559 6.26042 17.6413 5.7526 18.1934 5.38281C18.7507 5.00781 19.3809 4.82031 20.084 4.82031C20.2298 4.82031 20.4017 4.82552 20.5996 4.83594C20.8027 4.84635 20.9616 4.85937 21.0762 4.875V7.10937C20.9824 7.08333 20.8158 7.05469 20.5762 7.02344C20.3366 6.98698 20.097 6.96875 19.8574 6.96875C19.3053 6.96875 18.8132 7.08594 18.3809 7.32031C17.9538 7.54948 17.6152 7.86979 17.3652 8.28125C17.1152 8.6875 16.9902 9.15104 16.9902 9.67187V17H14.6543ZM26.4824 17.2656C25.722 17.2656 25.0345 17.125 24.4199 16.8437C23.8053 16.5573 23.3184 16.1432 22.959 15.6016C22.6048 15.0599 22.4277 14.3958 22.4277 13.6094C22.4277 12.9323 22.5579 12.375 22.8184 11.9375C23.0788 11.5 23.4303 11.1536 23.873 10.8984C24.3158 10.6432 24.8105 10.4505 25.3574 10.3203C25.9043 10.1901 26.4616 10.0911 27.0293 10.0234C27.748 9.9401 28.3314 9.8724 28.7793 9.82031C29.2272 9.76302 29.5527 9.67187 29.7559 9.54688C29.959 9.42187 30.0605 9.21875 30.0605 8.9375V8.88281C30.0605 8.20052 29.8678 7.67187 29.4824 7.29687C29.1022 6.92187 28.5345 6.73437 27.7793 6.73437C26.9928 6.73437 26.373 6.90885 25.9199 7.25781C25.472 7.60156 25.1621 7.98437 24.9902 8.40625L22.7949 7.90625C23.0553 7.17708 23.4355 6.58854 23.9355 6.14062C24.4408 5.6875 25.0215 5.35937 25.6777 5.15625C26.334 4.94792 27.0241 4.84375 27.748 4.84375C28.2272 4.84375 28.735 4.90104 29.2715 5.01563C29.8132 5.125 30.3184 5.32812 30.7871 5.625C31.2611 5.92187 31.6491 6.34635 31.9512 6.89844C32.2533 7.44531 32.4043 8.15625 32.4043 9.03125V17H30.123V15.3594H30.0293C29.8783 15.6615 29.6517 15.9583 29.3496 16.25C29.0475 16.5417 28.6595 16.7839 28.1855 16.9766C27.7116 17.1693 27.1439 17.2656 26.4824 17.2656ZM26.9902 15.3906C27.6361 15.3906 28.1882 15.263 28.6465 15.0078C29.11 14.7526 29.4616 14.4193 29.7012 14.0078C29.946 13.5911 30.0684 13.1458 30.0684 12.6719V11.125C29.985 11.2083 29.8236 11.2865 29.584 11.3594C29.3496 11.4271 29.0814 11.487 28.7793 11.5391C28.4772 11.5859 28.1829 11.6302 27.8965 11.6719C27.61 11.7083 27.3704 11.7396 27.1777 11.7656C26.7246 11.8229 26.3105 11.9193 25.9355 12.0547C25.5658 12.1901 25.2689 12.3854 25.0449 12.6406C24.8262 12.8906 24.7168 13.224 24.7168 13.6406C24.7168 14.2187 24.9303 14.6562 25.3574 14.9531C25.7845 15.2448 26.3288 15.3906 26.9902 15.3906ZM40.0078 17.2344C39.0391 17.2344 38.1745 16.987 37.4141 16.4922C36.6589 15.9922 36.0651 15.2812 35.6328 14.3594C35.2057 13.4323 34.9922 12.3203 34.9922 11.0234C34.9922 9.72656 35.2083 8.61719 35.6406 7.69531C36.0781 6.77344 36.6771 6.06771 37.4375 5.57813C38.1979 5.08854 39.0599 4.84375 40.0234 4.84375C40.7682 4.84375 41.3672 4.96875 41.8203 5.21875C42.2786 5.46354 42.6328 5.75 42.8828 6.07812C43.138 6.40625 43.3359 6.69531 43.4766 6.94531H43.6172V1H45.9531V17H43.6719V15.1328H43.4766C43.3359 15.388 43.1328 15.6797 42.8672 16.0078C42.6068 16.3359 42.2474 16.6224 41.7891 16.8672C41.3307 17.112 40.737 17.2344 40.0078 17.2344ZM40.5234 15.2422C41.1953 15.2422 41.763 15.0651 42.2266 14.7109C42.6953 14.3516 43.0495 13.8542 43.2891 13.2188C43.5339 12.5833 43.6562 11.8437 43.6562 11C43.6562 10.1667 43.5365 9.4375 43.2969 8.8125C43.0573 8.1875 42.7057 7.70052 42.2422 7.35156C41.7786 7.0026 41.2057 6.82812 40.5234 6.82812C39.8203 6.82812 39.2344 7.01042 38.7656 7.375C38.2969 7.73958 37.9427 8.23698 37.7031 8.86719C37.4688 9.4974 37.3516 10.2083 37.3516 11C37.3516 11.8021 37.4714 12.5234 37.7109 13.1641C37.9505 13.8047 38.3047 14.3125 38.7734 14.6875C39.2474 15.0573 39.8307 15.2422 40.5234 15.2422ZM49.2871 17V5H51.623V17H49.2871ZM50.4668 3.14844C50.0605 3.14844 49.7116 3.01302 49.4199 2.74219C49.1335 2.46615 48.9902 2.13802 48.9902 1.75781C48.9902 1.3724 49.1335 1.04427 49.4199 0.773437C49.7116 0.497395 50.0605 0.359375 50.4668 0.359375C50.873 0.359375 51.2194 0.497395 51.5059 0.773437C51.7975 1.04427 51.9434 1.3724 51.9434 1.75781C51.9434 2.13802 51.7975 2.46615 51.5059 2.74219C51.2194 3.01302 50.873 3.14844 50.4668 3.14844ZM57.1016 9.875V17H54.7656V5H57.0078V6.95312H57.1563C57.4323 6.31771 57.8646 5.80729 58.4531 5.42187C59.0469 5.03646 59.7943 4.84375 60.6953 4.84375C61.513 4.84375 62.2292 5.01563 62.8438 5.35938C63.4583 5.69792 63.9349 6.20312 64.2734 6.875C64.612 7.54687 64.7813 8.3776 64.7813 9.36719V17H62.4453V9.64844C62.4453 8.77865 62.2188 8.09896 61.7656 7.60937C61.3125 7.11458 60.6901 6.86719 59.8984 6.86719C59.3568 6.86719 58.875 6.98437 58.4531 7.21875C58.0365 7.45312 57.7057 7.79687 57.4609 8.25C57.2214 8.69792 57.1016 9.23958 57.1016 9.875ZM72.9453 21.75C71.9922 21.75 71.1719 21.625 70.4844 21.375C69.8021 21.125 69.2448 20.7943 68.8125 20.3828C68.3802 19.9714 68.0573 19.5208 67.8438 19.0313L69.8516 18.2031C69.9922 18.4323 70.1797 18.6745 70.4141 18.9297C70.6536 19.1901 70.9766 19.4115 71.3828 19.5938C71.7943 19.776 72.3229 19.8672 72.9688 19.8672C73.8542 19.8672 74.5859 19.651 75.1641 19.2188C75.7422 18.7917 76.0313 18.1094 76.0313 17.1719V14.8125H75.8828C75.7422 15.0677 75.5391 15.3516 75.2734 15.6641C75.013 15.9766 74.6536 16.2474 74.1953 16.4766C73.737 16.7057 73.1406 16.8203 72.4063 16.8203C71.4583 16.8203 70.6042 16.599 69.8437 16.1562C69.0885 15.7083 68.4896 15.0495 68.0469 14.1797C67.6094 13.3047 67.3906 12.2292 67.3906 10.9531C67.3906 9.67708 67.6068 8.58333 68.0391 7.67187C68.4766 6.76042 69.0755 6.0625 69.8359 5.57813C70.5964 5.08854 71.4583 4.84375 72.4219 4.84375C73.1667 4.84375 73.7682 4.96875 74.2266 5.21875C74.6849 5.46354 75.0417 5.75 75.2969 6.07812C75.5573 6.40625 75.7578 6.69531 75.8984 6.94531H76.0703V5H78.3594V17.2656C78.3594 18.2969 78.1198 19.1432 77.6406 19.8047C77.1615 20.4661 76.513 20.9557 75.6953 21.2734C74.8828 21.5911 73.9661 21.75 72.9453 21.75ZM72.9219 14.8828C73.5938 14.8828 74.1615 14.7266 74.625 14.4141C75.0938 14.0964 75.4479 13.6432 75.6875 13.0547C75.9323 12.4609 76.0547 11.75 76.0547 10.9219C76.0547 10.1146 75.9349 9.40365 75.6953 8.78906C75.4557 8.17448 75.1042 7.69531 74.6406 7.35156C74.1771 7.0026 73.6042 6.82812 72.9219 6.82812C72.2188 6.82812 71.6328 7.01042 71.1641 7.375C70.6953 7.73437 70.3411 8.22396 70.1016 8.84375C69.8672 9.46354 69.75 10.1562 69.75 10.9219C69.75 11.7083 69.8698 12.3984 70.1094 12.9922C70.349 13.5859 70.7031 14.0495 71.1719 14.3828C71.6458 14.7161 72.2292 14.8828 72.9219 14.8828ZM84.5313 14.8125L84.4141 15.6641C84.3359 16.2891 84.2031 16.9401 84.0156 17.6172C83.8333 18.2995 83.6432 18.9323 83.4453 19.5156C83.2526 20.099 83.0938 20.5625 82.9688 20.9063H81.3125C81.3802 20.5833 81.474 20.1458 81.5938 19.5938C81.7135 19.0469 81.8307 18.4349 81.9453 17.7578C82.0599 17.0807 82.1458 16.3906 82.2031 15.6875L82.2813 14.8125H84.5313ZM4.17188 49L0.640625 37H3.05469L5.40625 45.8125H5.52344L7.88281 37H10.2969L12.6406 45.7734H12.7578L15.0938 37H17.5078L13.9844 49H11.6016L9.16406 40.3359H8.98438L6.54688 49H4.17188ZM19.7246 49V37H22.0605V49H19.7246ZM20.9043 35.1484C20.498 35.1484 20.1491 35.013 19.8574 34.7422C19.571 34.4661 19.4277 34.138 19.4277 33.7578C19.4277 33.3724 19.571 33.0443 19.8574 32.7734C20.1491 32.4974 20.498 32.3594 20.9043 32.3594C21.3105 32.3594 21.6569 32.4974 21.9434 32.7734C22.235 33.0443 22.3809 33.3724 22.3809 33.7578C22.3809 34.138 22.235 34.4661 21.9434 34.7422C21.6569 35.013 21.3105 35.1484 20.9043 35.1484ZM30.8047 37V38.875H24.25V37H30.8047ZM26.0078 34.125H28.3438V45.4766C28.3438 45.9297 28.4115 46.2708 28.5469 46.5C28.6823 46.724 28.8568 46.8776 29.0703 46.9609C29.2891 47.0391 29.526 47.0781 29.7813 47.0781C29.9688 47.0781 30.1328 47.0651 30.2734 47.0391C30.4141 47.013 30.5234 46.9922 30.6016 46.9766L31.0234 48.9062C30.888 48.9583 30.6953 49.0104 30.4453 49.0625C30.1953 49.1198 29.8828 49.151 29.5078 49.1563C28.8932 49.1667 28.3203 49.0573 27.7891 48.8281C27.2578 48.599 26.8281 48.2448 26.5 47.7656C26.1719 47.2865 26.0078 46.6849 26.0078 45.9609V34.125ZM35.9824 41.875V49H33.6465V33H35.9512V38.9531H36.0996C36.3809 38.3073 36.8105 37.7943 37.3887 37.4141C37.9668 37.0339 38.722 36.8438 39.6543 36.8438C40.4772 36.8438 41.196 37.013 41.8105 37.3516C42.4303 37.6901 42.9095 38.1953 43.248 38.8672C43.5918 39.5339 43.7637 40.3672 43.7637 41.3672V49H41.4277V41.6484C41.4277 40.7682 41.2012 40.0859 40.748 39.6016C40.2949 39.112 39.6647 38.8672 38.8574 38.8672C38.3053 38.8672 37.8105 38.9844 37.373 39.2187C36.9408 39.4531 36.5996 39.7969 36.3496 40.25C36.1048 40.6979 35.9824 41.2396 35.9824 41.875ZM58.3047 37V38.875H51.75V37H58.3047ZM53.5078 34.125H55.8438V45.4766C55.8438 45.9297 55.9115 46.2708 56.0469 46.5C56.1823 46.724 56.3568 46.8776 56.5703 46.9609C56.7891 47.0391 57.026 47.0781 57.2813 47.0781C57.4688 47.0781 57.6328 47.0651 57.7734 47.0391C57.9141 47.013 58.0234 46.9922 58.1016 46.9766L58.5234 48.9062C58.388 48.9583 58.1953 49.0104 57.9453 49.0625C57.6953 49.1198 57.3828 49.151 57.0078 49.1563C56.3932 49.1667 55.8203 49.0573 55.2891 48.8281C54.7578 48.599 54.3281 48.2448 54 47.7656C53.6719 47.2865 53.5078 46.6849 53.5078 45.9609V34.125ZM63.4824 41.875V49H61.1465V33H63.4512V38.9531H63.5996C63.8809 38.3073 64.3105 37.7943 64.8887 37.4141C65.4668 37.0339 66.222 36.8438 67.1543 36.8438C67.9772 36.8438 68.696 37.013 69.3105 37.3516C69.9303 37.6901 70.4095 38.1953 70.748 38.8672C71.0918 39.5339 71.2637 40.3672 71.2637 41.3672V49H68.9277V41.6484C68.9277 40.7682 68.7012 40.0859 68.248 39.6016C67.7949 39.112 67.1647 38.8672 66.3574 38.8672C65.8053 38.8672 65.3105 38.9844 64.873 39.2187C64.4408 39.4531 64.0996 39.7969 63.8496 40.25C63.6048 40.6979 63.4824 41.2396 63.4824 41.875ZM79.5527 49.2422C78.3704 49.2422 77.3522 48.9896 76.498 48.4844C75.6491 47.974 74.9928 47.2578 74.5293 46.3359C74.071 45.4089 73.8418 44.3229 73.8418 43.0781C73.8418 41.849 74.071 40.7656 74.5293 39.8281C74.9928 38.8906 75.6387 38.1589 76.4668 37.6328C77.3001 37.1068 78.2741 36.8438 79.3887 36.8438C80.0658 36.8438 80.722 36.9557 81.3574 37.1797C81.9928 37.4036 82.5632 37.7552 83.0684 38.2344C83.5736 38.7135 83.972 39.3359 84.2637 40.1016C84.5553 40.862 84.7012 41.7865 84.7012 42.875V43.7031H75.1621V41.9531H82.4121C82.4121 41.3385 82.2871 40.7943 82.0371 40.3203C81.7871 39.8411 81.4355 39.4635 80.9824 39.1875C80.5345 38.9115 80.0085 38.7734 79.4043 38.7734C78.748 38.7734 78.1751 38.9349 77.6855 39.2578C77.2012 39.5755 76.8262 39.9922 76.5605 40.5078C76.3001 41.0182 76.1699 41.5729 76.1699 42.1719V43.5391C76.1699 44.3411 76.3105 45.0234 76.5918 45.5859C76.8783 46.1484 77.2767 46.5781 77.7871 46.875C78.2975 47.1667 78.8939 47.3125 79.5762 47.3125C80.0189 47.3125 80.4225 47.25 80.7871 47.125C81.1517 46.9948 81.4668 46.8021 81.7324 46.5469C81.998 46.2917 82.2012 45.9766 82.3418 45.6016L84.5527 46C84.3757 46.651 84.0579 47.2214 83.5996 47.7109C83.1465 48.1953 82.5762 48.5729 81.8887 48.8437C81.2064 49.1094 80.4277 49.2422 79.5527 49.2422ZM102.107 39.9297L99.9902 40.3047C99.9017 40.0339 99.7611 39.776 99.5684 39.5312C99.3809 39.2865 99.1257 39.0859 98.8027 38.9297C98.4798 38.7734 98.0762 38.6953 97.5918 38.6953C96.9303 38.6953 96.3783 38.8437 95.9355 39.1406C95.4928 39.4323 95.2715 39.8099 95.2715 40.2734C95.2715 40.6745 95.4199 40.9974 95.7168 41.2422C96.0137 41.487 96.4928 41.6875 97.1543 41.8437L99.0605 42.2812C100.165 42.5365 100.988 42.9297 101.529 43.4609C102.071 43.9922 102.342 44.6823 102.342 45.5313C102.342 46.25 102.133 46.8906 101.717 47.4531C101.305 48.0104 100.73 48.4479 99.9902 48.7656C99.2559 49.0833 98.4043 49.2422 97.4355 49.2422C96.0918 49.2422 94.9954 48.9557 94.1465 48.3828C93.2975 47.8047 92.7767 46.9844 92.584 45.9219L94.8418 45.5781C94.9824 46.1667 95.2715 46.612 95.709 46.9141C96.1465 47.2109 96.7168 47.3594 97.4199 47.3594C98.1855 47.3594 98.7975 47.2005 99.2559 46.8828C99.7142 46.5599 99.9434 46.1667 99.9434 45.7031C99.9434 45.3281 99.8027 45.013 99.5215 44.7578C99.2454 44.5026 98.821 44.3099 98.248 44.1797L96.2168 43.7344C95.097 43.4792 94.2689 43.0729 93.7324 42.5156C93.2012 41.9583 92.9355 41.2526 92.9355 40.3984C92.9355 39.6901 93.1335 39.0703 93.5293 38.5391C93.9251 38.0078 94.472 37.5937 95.1699 37.2969C95.8678 36.9948 96.6673 36.8438 97.5684 36.8438C98.8652 36.8438 99.8861 37.125 100.631 37.6875C101.376 38.2448 101.868 38.9922 102.107 39.9297ZM104.91 49V37H107.152V38.9531H107.301C107.551 38.2917 107.96 37.776 108.527 37.4063C109.095 37.0313 109.775 36.8438 110.566 36.8438C111.368 36.8438 112.04 37.0313 112.582 37.4063C113.129 37.7812 113.533 38.2969 113.793 38.9531H113.918C114.204 38.3125 114.66 37.8021 115.285 37.4219C115.91 37.0365 116.655 36.8438 117.52 36.8438C118.608 36.8438 119.496 37.1849 120.184 37.8672C120.876 38.5495 121.223 39.5781 121.223 40.9531V49H118.887V41.1719C118.887 40.3594 118.665 39.7708 118.223 39.4062C117.78 39.0417 117.251 38.8594 116.637 38.8594C115.876 38.8594 115.285 39.0937 114.863 39.5625C114.441 40.026 114.23 40.6224 114.23 41.3516V49H111.902V41.0234C111.902 40.3724 111.699 39.849 111.293 39.4531C110.887 39.0573 110.358 38.8594 109.707 38.8594C109.264 38.8594 108.855 38.9766 108.48 39.2109C108.111 39.4401 107.811 39.7604 107.582 40.1719C107.358 40.5833 107.246 41.0599 107.246 41.6016V49H104.91ZM127.846 49.2656C127.085 49.2656 126.398 49.125 125.783 48.8437C125.169 48.5573 124.682 48.1432 124.322 47.6016C123.968 47.0599 123.791 46.3958 123.791 45.6094C123.791 44.9323 123.921 44.375 124.182 43.9375C124.442 43.5 124.794 43.1536 125.236 42.8984C125.679 42.6432 126.174 42.4505 126.721 42.3203C127.268 42.1901 127.825 42.0911 128.393 42.0234C129.111 41.9401 129.695 41.8724 130.143 41.8203C130.59 41.763 130.916 41.6719 131.119 41.5469C131.322 41.4219 131.424 41.2187 131.424 40.9375V40.8828C131.424 40.2005 131.231 39.6719 130.846 39.2969C130.465 38.9219 129.898 38.7344 129.143 38.7344C128.356 38.7344 127.736 38.9089 127.283 39.2578C126.835 39.6016 126.525 39.9844 126.354 40.4062L124.158 39.9062C124.419 39.1771 124.799 38.5885 125.299 38.1406C125.804 37.6875 126.385 37.3594 127.041 37.1562C127.697 36.9479 128.387 36.8438 129.111 36.8438C129.59 36.8438 130.098 36.901 130.635 37.0156C131.176 37.125 131.682 37.3281 132.15 37.625C132.624 37.9219 133.012 38.3464 133.314 38.8984C133.617 39.4453 133.768 40.1563 133.768 41.0313V49H131.486V47.3594H131.393C131.242 47.6615 131.015 47.9583 130.713 48.25C130.411 48.5417 130.023 48.7839 129.549 48.9766C129.075 49.1693 128.507 49.2656 127.846 49.2656ZM128.354 47.3906C128.999 47.3906 129.551 47.263 130.01 47.0078C130.473 46.7526 130.825 46.4193 131.064 46.0078C131.309 45.5911 131.432 45.1458 131.432 44.6719V43.125C131.348 43.2083 131.187 43.2865 130.947 43.3594C130.713 43.4271 130.445 43.487 130.143 43.5391C129.84 43.5859 129.546 43.6302 129.26 43.6719C128.973 43.7083 128.734 43.7396 128.541 43.7656C128.088 43.8229 127.674 43.9193 127.299 44.0547C126.929 44.1901 126.632 44.3854 126.408 44.6406C126.189 44.8906 126.08 45.224 126.08 45.6406C126.08 46.2187 126.294 46.6562 126.721 46.9531C127.148 47.2448 127.692 47.3906 128.354 47.3906ZM136.879 49V37H139.137V38.9062H139.262C139.48 38.2604 139.866 37.7526 140.418 37.3828C140.975 37.0078 141.605 36.8203 142.309 36.8203C142.454 36.8203 142.626 36.8255 142.824 36.8359C143.027 36.8464 143.186 36.8594 143.301 36.875V39.1094C143.207 39.0833 143.04 39.0547 142.801 39.0234C142.561 38.987 142.322 38.9687 142.082 38.9687C141.53 38.9687 141.038 39.0859 140.605 39.3203C140.178 39.5495 139.84 39.8698 139.59 40.2812C139.34 40.6875 139.215 41.151 139.215 41.6719V49H136.879ZM151.633 37V38.875H145.078V37H151.633ZM146.836 34.125H149.172V45.4766C149.172 45.9297 149.24 46.2708 149.375 46.5C149.51 46.724 149.685 46.8776 149.898 46.9609C150.117 47.0391 150.354 47.0781 150.609 47.0781C150.797 47.0781 150.961 47.0651 151.102 47.0391C151.242 47.013 151.352 46.9922 151.43 46.9766L151.852 48.9062C151.716 48.9583 151.523 49.0104 151.273 49.0625C151.023 49.1198 150.711 49.151 150.336 49.1563C149.721 49.1667 149.148 49.0573 148.617 48.8281C148.086 48.599 147.656 48.2448 147.328 47.7656C147 47.2865 146.836 46.6849 146.836 45.9609V34.125ZM160.039 49V37H162.281V38.9531H162.43C162.68 38.2917 163.089 37.776 163.656 37.4063C164.224 37.0313 164.904 36.8438 165.695 36.8438C166.497 36.8438 167.169 37.0313 167.711 37.4063C168.258 37.7812 168.661 38.2969 168.922 38.9531H169.047C169.333 38.3125 169.789 37.8021 170.414 37.4219C171.039 37.0365 171.784 36.8438 172.648 36.8438C173.737 36.8438 174.625 37.1849 175.312 37.8672C176.005 38.5495 176.352 39.5781 176.352 40.9531V49H174.016V41.1719C174.016 40.3594 173.794 39.7708 173.352 39.4062C172.909 39.0417 172.38 38.8594 171.766 38.8594C171.005 38.8594 170.414 39.0937 169.992 39.5625C169.57 40.026 169.359 40.6224 169.359 41.3516V49H167.031V41.0234C167.031 40.3724 166.828 39.849 166.422 39.4531C166.016 39.0573 165.487 38.8594 164.836 38.8594C164.393 38.8594 163.984 38.9766 163.609 39.2109C163.24 39.4401 162.94 39.7604 162.711 40.1719C162.487 40.5833 162.375 41.0599 162.375 41.6016V49H160.039ZM184.537 49.2422C183.412 49.2422 182.43 48.9844 181.592 48.4687C180.753 47.9531 180.102 47.2318 179.639 46.3047C179.175 45.3776 178.943 44.2943 178.943 43.0547C178.943 41.8099 179.175 40.7214 179.639 39.7891C180.102 38.8568 180.753 38.1328 181.592 37.6172C182.43 37.1016 183.412 36.8438 184.537 36.8438C185.662 36.8438 186.644 37.1016 187.482 37.6172C188.321 38.1328 188.972 38.8568 189.436 39.7891C189.899 40.7214 190.131 41.8099 190.131 43.0547C190.131 44.2943 189.899 45.3776 189.436 46.3047C188.972 47.2318 188.321 47.9531 187.482 48.4687C186.644 48.9844 185.662 49.2422 184.537 49.2422ZM184.545 47.2812C185.274 47.2812 185.878 47.0885 186.357 46.7031C186.837 46.3177 187.191 45.8047 187.42 45.1641C187.654 44.5234 187.771 43.8177 187.771 43.0469C187.771 42.2812 187.654 41.5781 187.42 40.9375C187.191 40.2917 186.837 39.7734 186.357 39.3828C185.878 38.9922 185.274 38.7969 184.545 38.7969C183.811 38.7969 183.201 38.9922 182.717 39.3828C182.238 39.7734 181.881 40.2917 181.646 40.9375C181.417 41.5781 181.303 42.2812 181.303 43.0469C181.303 43.8177 181.417 44.5234 181.646 45.1641C181.881 45.8047 182.238 46.3177 182.717 46.7031C183.201 47.0885 183.811 47.2812 184.545 47.2812ZM195.074 41.875V49H192.738V37H194.98V38.9531H195.129C195.405 38.3177 195.837 37.8073 196.426 37.4219C197.02 37.0365 197.767 36.8438 198.668 36.8438C199.486 36.8438 200.202 37.0156 200.816 37.3594C201.431 37.6979 201.908 38.2031 202.246 38.875C202.585 39.5469 202.754 40.3776 202.754 41.3672V49H200.418V41.6484C200.418 40.7786 200.191 40.099 199.738 39.6094C199.285 39.1146 198.663 38.8672 197.871 38.8672C197.329 38.8672 196.848 38.9844 196.426 39.2187C196.009 39.4531 195.678 39.7969 195.434 40.25C195.194 40.6979 195.074 41.2396 195.074 41.875ZM211.059 49.2422C209.876 49.2422 208.858 48.9896 208.004 48.4844C207.155 47.974 206.499 47.2578 206.035 46.3359C205.577 45.4089 205.348 44.3229 205.348 43.0781C205.348 41.849 205.577 40.7656 206.035 39.8281C206.499 38.8906 207.145 38.1589 207.973 37.6328C208.806 37.1068 209.78 36.8438 210.895 36.8438C211.572 36.8438 212.228 36.9557 212.863 37.1797C213.499 37.4036 214.069 37.7552 214.574 38.2344C215.079 38.7135 215.478 39.3359 215.77 40.1016C216.061 40.862 216.207 41.7865 216.207 42.875V43.7031H206.668V41.9531H213.918C213.918 41.3385 213.793 40.7943 213.543 40.3203C213.293 39.8411 212.941 39.4635 212.488 39.1875C212.04 38.9115 211.514 38.7734 210.91 38.7734C210.254 38.7734 209.681 38.9349 209.191 39.2578C208.707 39.5755 208.332 39.9922 208.066 40.5078C207.806 41.0182 207.676 41.5729 207.676 42.1719V43.5391C207.676 44.3411 207.816 45.0234 208.098 45.5859C208.384 46.1484 208.783 46.5781 209.293 46.875C209.803 47.1667 210.4 47.3125 211.082 47.3125C211.525 47.3125 211.928 47.25 212.293 47.125C212.658 46.9948 212.973 46.8021 213.238 46.5469C213.504 46.2917 213.707 45.9766 213.848 45.6016L216.059 46C215.882 46.651 215.564 47.2214 215.105 47.7109C214.652 48.1953 214.082 48.5729 213.395 48.8437C212.712 49.1094 211.934 49.2422 211.059 49.2422ZM219.932 53.5C219.583 53.5 219.265 53.4714 218.979 53.4141C218.692 53.362 218.479 53.3047 218.338 53.2422L218.9 51.3281C219.327 51.4427 219.708 51.4922 220.041 51.4766C220.374 51.4609 220.669 51.3359 220.924 51.1016C221.184 50.8672 221.413 50.4844 221.611 49.9531L221.9 49.1563L217.51 37H220.01L223.049 46.3125H223.174L226.213 37H228.721L223.775 50.6016C223.546 51.2266 223.255 51.7552 222.9 52.1875C222.546 52.625 222.124 52.9531 221.635 53.1719C221.145 53.3906 220.577 53.5 219.932 53.5Z" fill="white"/>
</svg>
