<svg width="116" height="113" viewBox="0 0 116 113" fill="none" xmlns="http://www.w3.org/2000/svg">
<path d="M49.8231 37.2039V18.5461L33.6232 27.8191V46.5886L49.8231 37.2039Z" fill="white"/>
<path d="M33.5115 65.3582V46.7004L17.3116 55.9734V74.7429L33.5115 65.3582Z" fill="white"/>
<path d="M17.1999 93.5125V74.8547L1 84.1277V102.897L17.1999 93.5125Z" fill="white"/>
<path d="M66.1429 46.6429L49.8571 56.0279V74.7979L66.1429 65.4129V46.6429Z" fill="white"/>
<path d="M98.7143 46.6429L82.4286 56.0279V74.7979L98.7143 65.4129V46.6429Z" fill="white"/>
<path d="M66.1429 65.4129V46.6429L82.4286 37.2579L98.6453 46.6429L82.4286 56.0969V74.7289L66.1429 84.1139L49.8571 74.7289L66.1429 65.4129Z" fill="url(#paint0_linear_1_3)"/>
<path d="M66.1429 65.4129L66.1429 46.6429" stroke="#190A3E" stroke-width="0.5" stroke-linecap="round" stroke-linejoin="round"/>
<path d="M82.4286 74.7979L82.4286 56.0279" stroke="#190A3E" stroke-width="0.5" stroke-linecap="round" stroke-linejoin="round"/>
<path d="M66.1429 46.6429L82.3981 56.0279" stroke="#190A3E" stroke-width="0.5" stroke-linecap="round" stroke-linejoin="round"/>
<path d="M66.1429 65.4129L82.3981 74.7979" stroke="#190A3E" stroke-width="0.5" stroke-linecap="round" stroke-linejoin="round"/>
<path d="M49.8571 74.7979L66.1124 84.1829" stroke="#190A3E" stroke-width="0.5" stroke-linecap="round" stroke-linejoin="round"/>
<path d="M82.4286 37.2579L98.6839 46.6429" stroke="#190A3E" stroke-width="0.5" stroke-linecap="round" stroke-linejoin="round"/>
<path d="M82.4286 56.0279L82.4286 74.7979" stroke="#190A3E" stroke-width="0.5" stroke-linecap="round" stroke-linejoin="round"/>
<path d="M98.7143 46.6429L98.7143 65.4129" stroke="#190A3E" stroke-width="0.5" stroke-linecap="round" stroke-linejoin="round"/>
<path d="M82.4286 74.7979L98.6839 65.4129" stroke="#190A3E" stroke-width="0.5" stroke-linecap="round" stroke-linejoin="round"/>
<path d="M66.1429 84.1829L82.3981 74.7979" stroke="#190A3E" stroke-width="0.5" stroke-linecap="round" stroke-linejoin="round"/>
<path d="M82.4286 56.0279L98.6839 46.6429" stroke="#190A3E" stroke-width="0.5" stroke-linecap="round" stroke-linejoin="round"/>
<path d="M49.8571 56.0279L49.8571 74.7979" stroke="#190A3E" stroke-width="0.5" stroke-linecap="round" stroke-linejoin="round"/>
<path d="M66.1429 46.6429L66.1429 65.4129" stroke="#190A3E" stroke-width="0.5" stroke-linecap="round" stroke-linejoin="round"/>
<path d="M49.8571 74.7979L66.1124 65.4129" stroke="#190A3E" stroke-width="0.5" stroke-linecap="round" stroke-linejoin="round"/>
<path d="M49.8571 56.0279L66.1124 46.6429" stroke="#190A3E" stroke-width="0.5" stroke-linecap="round" stroke-linejoin="round"/>
<path d="M66.1429 46.6429L82.3981 37.2579" stroke="#190A3E" stroke-width="0.5" stroke-linecap="round" stroke-linejoin="round"/>
<path d="M49.8571 74.7979L33.5714 84.1829V102.953L49.8571 93.5678V74.7979Z" fill="white"/>
<path d="M82.4286 74.7979L66.1429 84.1829V102.953L82.4286 93.5678V74.7979Z" fill="white"/>
<path d="M49.8571 93.5678V74.7979L66.1428 65.4129L82.3595 74.7979L66.1428 84.2519V102.884L49.8571 112.269L33.5714 102.884L49.8571 93.5678Z" fill="url(#paint1_linear_1_3)"/>
<path d="M49.8571 93.5678L49.8571 74.7979" stroke="#190A3E" stroke-width="0.5" stroke-linecap="round" stroke-linejoin="round"/>
<path d="M66.1429 102.953L66.1429 84.1829" stroke="#190A3E" stroke-width="0.5" stroke-linecap="round" stroke-linejoin="round"/>
<path d="M49.8571 74.7979L66.1124 84.1829" stroke="#190A3E" stroke-width="0.5" stroke-linecap="round" stroke-linejoin="round"/>
<path d="M49.8571 93.5678L66.1124 102.953" stroke="#190A3E" stroke-width="0.5" stroke-linecap="round" stroke-linejoin="round"/>
<path d="M33.5714 102.953L49.8267 112.338" stroke="#190A3E" stroke-width="0.5" stroke-linecap="round" stroke-linejoin="round"/>
<path d="M66.1429 65.4129L82.3981 74.7979" stroke="#190A3E" stroke-width="0.5" stroke-linecap="round" stroke-linejoin="round"/>
<path d="M66.1429 84.1829L66.1429 102.953" stroke="#190A3E" stroke-width="0.5" stroke-linecap="round" stroke-linejoin="round"/>
<path d="M82.4286 74.7979L82.4286 93.5679" stroke="#190A3E" stroke-width="0.5" stroke-linecap="round" stroke-linejoin="round"/>
<path d="M66.1429 102.953L82.3981 93.5678" stroke="#190A3E" stroke-width="0.5" stroke-linecap="round" stroke-linejoin="round"/>
<path d="M49.8571 112.338L66.1124 102.953" stroke="#190A3E" stroke-width="0.5" stroke-linecap="round" stroke-linejoin="round"/>
<path d="M66.1429 84.1829L82.3981 74.7979" stroke="#190A3E" stroke-width="0.5" stroke-linecap="round" stroke-linejoin="round"/>
<path d="M33.5714 84.1829L33.5714 102.953" stroke="#190A3E" stroke-width="0.5" stroke-linecap="round" stroke-linejoin="round"/>
<path d="M49.8571 74.7979L49.8571 93.5678" stroke="#190A3E" stroke-width="0.5" stroke-linecap="round" stroke-linejoin="round"/>
<path d="M33.5714 102.953L49.8267 93.5678" stroke="#190A3E" stroke-width="0.5" stroke-linecap="round" stroke-linejoin="round"/>
<path d="M33.5714 84.1829L49.8267 74.7979" stroke="#190A3E" stroke-width="0.5" stroke-linecap="round" stroke-linejoin="round"/>
<path d="M49.8571 74.7979L66.1124 65.4129" stroke="#190A3E" stroke-width="0.5" stroke-linecap="round" stroke-linejoin="round"/>
<path d="M115 74.7979L98.7143 84.1829V102.953L115 93.5678V74.7979Z" fill="white"/>
<path d="M82.4286 93.5678V74.7979L98.7143 65.4129L114.931 74.7979L98.7143 84.2519V102.884L82.4286 112.269L66.1429 102.884L82.4286 93.5678Z" fill="url(#paint2_linear_1_3)"/>
<path d="M82.4286 93.5678L82.4286 74.7979" stroke="#190A3E" stroke-width="0.5" stroke-linecap="round" stroke-linejoin="round"/>
<path d="M98.7143 102.953L98.7143 84.1829" stroke="#190A3E" stroke-width="0.5" stroke-linecap="round" stroke-linejoin="round"/>
<path d="M82.4286 74.7979L98.6838 84.1829" stroke="#190A3E" stroke-width="0.5" stroke-linecap="round" stroke-linejoin="round"/>
<path d="M82.4286 93.5678L98.6838 102.953" stroke="#190A3E" stroke-width="0.5" stroke-linecap="round" stroke-linejoin="round"/>
<path d="M66.1429 102.953L82.3981 112.338" stroke="#190A3E" stroke-width="0.5" stroke-linecap="round" stroke-linejoin="round"/>
<path d="M98.7143 65.4129L114.97 74.7979" stroke="#190A3E" stroke-width="0.5" stroke-linecap="round" stroke-linejoin="round"/>
<path d="M98.7143 84.1829L98.7143 102.953" stroke="#190A3E" stroke-width="0.5" stroke-linecap="round" stroke-linejoin="round"/>
<path d="M115 74.7979L115 93.5679" stroke="#190A3E" stroke-width="0.5" stroke-linecap="round" stroke-linejoin="round"/>
<path d="M98.7143 102.953L114.97 93.5678" stroke="#190A3E" stroke-width="0.5" stroke-linecap="round" stroke-linejoin="round"/>
<path d="M82.4286 112.338L98.6838 102.953" stroke="#190A3E" stroke-width="0.5" stroke-linecap="round" stroke-linejoin="round"/>
<path d="M98.7143 84.1829L114.97 74.7979" stroke="#190A3E" stroke-width="0.5" stroke-linecap="round" stroke-linejoin="round"/>
<path d="M66.1429 84.1829L66.1429 102.953" stroke="#190A3E" stroke-width="0.5" stroke-linecap="round" stroke-linejoin="round"/>
<path d="M82.4286 74.7979L82.4286 93.5678" stroke="#190A3E" stroke-width="0.5" stroke-linecap="round" stroke-linejoin="round"/>
<path d="M66.1429 102.953L82.3981 93.5678" stroke="#190A3E" stroke-width="0.5" stroke-linecap="round" stroke-linejoin="round"/>
<path d="M66.1429 84.1829L82.3981 74.7979" stroke="#190A3E" stroke-width="0.5" stroke-linecap="round" stroke-linejoin="round"/>
<path d="M82.4286 74.7979L98.6838 65.4129" stroke="#190A3E" stroke-width="0.5" stroke-linecap="round" stroke-linejoin="round"/>
<path d="M82.4286 18.4879L66.1429 27.8729V46.6429L82.4286 37.2579V18.4879Z" fill="white"/>
<path d="M49.8571 37.2579V18.488L66.1428 9.10297L82.3595 18.488L66.1428 27.942V46.5739L49.8571 55.9589L33.5714 46.5739L49.8571 37.2579Z" fill="url(#paint3_linear_1_3)"/>
<path d="M49.8571 37.2579L49.8571 18.4879" stroke="#190A3E" stroke-width="0.5" stroke-linecap="round" stroke-linejoin="round"/>
<path d="M66.1429 46.6429L66.1429 27.8729" stroke="#190A3E" stroke-width="0.5" stroke-linecap="round" stroke-linejoin="round"/>
<path d="M49.8571 18.4879L66.1124 27.8729" stroke="#190A3E" stroke-width="0.5" stroke-linecap="round" stroke-linejoin="round"/>
<path d="M49.8571 37.2579L66.1124 46.6429" stroke="#190A3E" stroke-width="0.5" stroke-linecap="round" stroke-linejoin="round"/>
<path d="M33.5714 46.6429L49.8267 56.0279" stroke="#190A3E" stroke-width="0.5" stroke-linecap="round" stroke-linejoin="round"/>
<path d="M66.1429 9.10297L82.3981 18.488" stroke="#190A3E" stroke-width="0.5" stroke-linecap="round" stroke-linejoin="round"/>
<path d="M66.1429 27.8729L66.1429 46.6429" stroke="#190A3E" stroke-width="0.5" stroke-linecap="round" stroke-linejoin="round"/>
<path d="M82.4286 18.4879L82.4286 37.2579" stroke="#190A3E" stroke-width="0.5" stroke-linecap="round" stroke-linejoin="round"/>
<path d="M66.1429 46.6429L82.3981 37.2579" stroke="#190A3E" stroke-width="0.5" stroke-linecap="round" stroke-linejoin="round"/>
<path d="M49.8571 56.0279L66.1124 46.6429" stroke="#190A3E" stroke-width="0.5" stroke-linecap="round" stroke-linejoin="round"/>
<path d="M66.1429 27.8729L82.3981 18.488" stroke="#190A3E" stroke-width="0.5" stroke-linecap="round" stroke-linejoin="round"/>
<path d="M33.5714 27.8729L33.5714 46.6429" stroke="#190A3E" stroke-width="0.5" stroke-linecap="round" stroke-linejoin="round"/>
<path d="M49.8571 18.4879L49.8571 37.2579" stroke="#190A3E" stroke-width="0.5" stroke-linecap="round" stroke-linejoin="round"/>
<path d="M33.5714 46.6429L49.8267 37.2579" stroke="#190A3E" stroke-width="0.5" stroke-linecap="round" stroke-linejoin="round"/>
<path d="M33.5714 27.8729L41.6991 23.1804L49.8267 18.4879" stroke="#190A3E" stroke-width="0.5" stroke-linecap="round" stroke-linejoin="round"/>
<path d="M49.8571 18.4879L66.1124 9.10295" stroke="#190A3E" stroke-width="0.5" stroke-linecap="round" stroke-linejoin="round"/>
<path d="M33.5714 65.4129V46.6429L49.8571 37.2579L66.0738 46.6429L49.8571 56.0969V74.7289L33.5714 84.1139L17.2857 74.7289L33.5714 65.4129Z" fill="url(#paint4_linear_1_3)"/>
<path d="M33.5714 65.4129L33.5714 46.6429" stroke="#190A3E" stroke-width="0.5" stroke-linecap="round" stroke-linejoin="round"/>
<path d="M49.8571 74.7979L49.8571 56.0279" stroke="#190A3E" stroke-width="0.5" stroke-linecap="round" stroke-linejoin="round"/>
<path d="M33.5714 46.6429L49.8267 56.0279" stroke="#190A3E" stroke-width="0.5" stroke-linecap="round" stroke-linejoin="round"/>
<path d="M33.5714 65.4129L49.8267 74.7979" stroke="#190A3E" stroke-width="0.5" stroke-linecap="round" stroke-linejoin="round"/>
<path d="M17.2857 74.7979L33.541 84.1829" stroke="#190A3E" stroke-width="0.5" stroke-linecap="round" stroke-linejoin="round"/>
<path d="M49.8571 37.2579L66.1124 46.6429" stroke="#190A3E" stroke-width="0.5" stroke-linecap="round" stroke-linejoin="round"/>
<path d="M49.8571 56.0279L49.8571 74.7979" stroke="#190A3E" stroke-width="0.5" stroke-linecap="round" stroke-linejoin="round"/>
<path d="M66.1429 46.6429L66.1429 65.4129" stroke="#190A3E" stroke-width="0.5" stroke-linecap="round" stroke-linejoin="round"/>
<path d="M49.8571 74.7979L66.1124 65.4129" stroke="#190A3E" stroke-width="0.5" stroke-linecap="round" stroke-linejoin="round"/>
<path d="M33.5714 84.1829L49.8267 74.7979" stroke="#190A3E" stroke-width="0.5" stroke-linecap="round" stroke-linejoin="round"/>
<path d="M49.8571 56.0279L66.1124 46.6429" stroke="#190A3E" stroke-width="0.5" stroke-linecap="round" stroke-linejoin="round"/>
<path d="M17.2857 56.0279L17.2857 74.7979" stroke="#190A3E" stroke-width="0.5" stroke-linecap="round" stroke-linejoin="round"/>
<path d="M33.5714 46.6429L33.5714 65.4129" stroke="#190A3E" stroke-width="0.5" stroke-linecap="round" stroke-linejoin="round"/>
<path d="M17.2857 74.7979L33.541 65.4129" stroke="#190A3E" stroke-width="0.5" stroke-linecap="round" stroke-linejoin="round"/>
<path d="M17.2857 56.0279L33.541 46.6429" stroke="#190A3E" stroke-width="0.5" stroke-linecap="round" stroke-linejoin="round"/>
<path d="M33.5714 46.6429L49.8267 37.2579" stroke="#190A3E" stroke-width="0.5" stroke-linecap="round" stroke-linejoin="round"/>
<path d="M17.2857 93.5679V74.7979L33.5714 65.4129L49.7881 74.7979L33.5714 84.2519V102.884L17.2857 112.269L1 102.884L17.2857 93.5679Z" fill="url(#paint5_linear_1_3)"/>
<path d="M17.2857 93.5678L17.2857 74.7979" stroke="#190A3E" stroke-width="0.5" stroke-linecap="round" stroke-linejoin="round"/>
<path d="M33.5714 102.953L33.5714 84.1829" stroke="#190A3E" stroke-width="0.5" stroke-linecap="round" stroke-linejoin="round"/>
<path d="M17.2857 74.7979L33.541 84.1829" stroke="#190A3E" stroke-width="0.5" stroke-linecap="round" stroke-linejoin="round"/>
<path d="M17.2857 93.5678L33.541 102.953" stroke="#190A3E" stroke-width="0.5" stroke-linecap="round" stroke-linejoin="round"/>
<path d="M1 102.953L17.2553 112.338" stroke="#190A3E" stroke-width="0.5" stroke-linecap="round" stroke-linejoin="round"/>
<path d="M33.5714 65.4129L49.8267 74.7979" stroke="#190A3E" stroke-width="0.5" stroke-linecap="round" stroke-linejoin="round"/>
<path d="M33.5714 84.1829L33.5714 102.953" stroke="#190A3E" stroke-width="0.5" stroke-linecap="round" stroke-linejoin="round"/>
<path d="M49.8571 74.7979L49.8571 93.5679" stroke="#190A3E" stroke-width="0.5" stroke-linecap="round" stroke-linejoin="round"/>
<path d="M33.5714 102.953L49.8267 93.5678" stroke="#190A3E" stroke-width="0.5" stroke-linecap="round" stroke-linejoin="round"/>
<path d="M17.2857 112.338L33.541 102.953" stroke="#190A3E" stroke-width="0.5" stroke-linecap="round" stroke-linejoin="round"/>
<path d="M33.5714 84.1829L49.8267 74.7979" stroke="#190A3E" stroke-width="0.5" stroke-linecap="round" stroke-linejoin="round"/>
<path d="M1 84.1829L1 102.953" stroke="#190A3E" stroke-width="0.5" stroke-linecap="round" stroke-linejoin="round"/>
<path d="M1 102.953L17.2553 93.5679" stroke="#190A3E" stroke-width="0.5" stroke-linecap="round" stroke-linejoin="round"/>
<path d="M1 84.1829L17.2553 74.7979" stroke="#190A3E" stroke-width="0.5" stroke-linecap="round" stroke-linejoin="round"/>
<path d="M17.2857 74.7979L33.541 65.4129" stroke="#190A3E" stroke-width="0.5" stroke-linecap="round" stroke-linejoin="round"/>
<path d="M72.1805 9.57421C72.1805 12.1787 71.5202 14.5248 70.4659 16.2117C69.4093 17.9022 67.9817 18.8984 66.4466 18.8984C64.9115 18.8984 63.4839 17.9022 62.4274 16.2117C61.373 14.5248 60.7127 12.1787 60.7127 9.57421C60.7127 6.96973 61.373 4.62367 62.4274 2.93672C63.4839 1.24625 64.9115 0.25 66.4466 0.25C67.9817 0.25 69.4093 1.24625 70.4659 2.93672C71.5202 4.62367 72.1805 6.96973 72.1805 9.57421Z" fill="#F967EA" stroke="#1A0941" stroke-width="0.5"/>
<path d="M70.7843 9.57421C70.7843 12.1787 70.124 14.5248 69.0696 16.2117C68.0131 17.9022 66.5855 18.8984 65.0504 18.8984C63.5153 18.8984 62.0877 17.9022 61.0312 16.2117C59.9768 14.5248 59.3165 12.1787 59.3165 9.57421C59.3165 6.96973 59.9768 4.62367 61.0312 2.93672C62.0877 1.24625 63.5153 0.25 65.0504 0.25C66.5855 0.25 68.0131 1.24625 69.0696 2.93672C70.124 4.62367 70.7843 6.96973 70.7843 9.57421Z" fill="#FFACF7" stroke="#1A0941" stroke-width="0.5"/>
<path d="M39.7792 66.1509C39.7792 68.7554 39.1189 71.1014 38.0646 72.7884C37.008 74.4789 35.5804 75.4751 34.0453 75.4751C32.5102 75.4751 31.0826 74.4789 30.0261 72.7884C28.9718 71.1014 28.3115 68.7554 28.3115 66.1509C28.3115 63.5464 28.9718 61.2004 30.0261 59.5134C31.0826 57.8229 32.5102 56.8267 34.0453 56.8267C35.5804 56.8267 37.008 57.8229 38.0646 59.5134C39.1189 61.2004 39.7792 63.5464 39.7792 66.1509Z" fill="#47B9F9" stroke="#1A0941" stroke-width="0.5"/>
<path d="M38.383 66.1509C38.383 68.7554 37.7227 71.1014 36.6683 72.7884C35.6118 74.4789 34.1842 75.4751 32.6491 75.4751C31.114 75.4751 29.6864 74.4789 28.6299 72.7884C27.5755 71.1014 26.9152 68.7554 26.9152 66.1509C26.9152 63.5464 27.5755 61.2003 28.6299 59.5134C29.6864 57.8229 31.114 56.8267 32.6491 56.8267C34.1842 56.8267 35.6118 57.8229 36.6683 59.5134C37.7227 61.2003 38.383 63.5464 38.383 66.1509Z" fill="#A4DEFF" stroke="#1A0941" stroke-width="0.5"/>
<path d="M88.5844 38.2337C88.5844 40.8382 87.9241 43.1842 86.8698 44.8712C85.8133 46.5617 84.3857 47.5579 82.8506 47.5579C81.3154 47.5579 79.8879 46.5617 78.8313 44.8712C77.777 43.1842 77.1167 40.8382 77.1167 38.2337C77.1167 35.6292 77.777 33.2832 78.8313 31.5962C79.8879 29.9057 81.3154 28.9095 82.8506 28.9095C84.3857 28.9095 85.8133 29.9057 86.8698 31.5962C87.9241 33.2832 88.5844 35.6292 88.5844 38.2337Z" fill="#E9A800" stroke="#1A0941" stroke-width="0.5"/>
<path d="M87.1882 38.2337C87.1882 40.8382 86.5279 43.1842 85.4736 44.8712C84.417 46.5617 82.9894 47.5579 81.4543 47.5579C79.9192 47.5579 78.4916 46.5617 77.4351 44.8712C76.3807 43.1842 75.7204 40.8382 75.7204 38.2337C75.7204 35.6292 76.3807 33.2832 77.4351 31.5962C78.4916 29.9057 79.9192 28.9095 81.4543 28.9095C82.9894 28.9095 84.417 29.9057 85.4736 31.5962C86.5279 33.2832 87.1882 35.6292 87.1882 38.2337Z" fill="#FFE195" stroke="#1A0941" stroke-width="0.5"/>
<path d="M89.3747 94.1051C89.3747 96.7095 88.7144 99.0556 87.6601 100.743C86.6035 102.433 85.1759 103.429 83.6408 103.429C82.1057 103.429 80.6781 102.433 79.6216 100.743C78.5672 99.0556 77.9069 96.7095 77.9069 94.1051C77.9069 91.5006 78.5672 89.1545 79.6216 87.4676C80.6781 85.7771 82.1057 84.7808 83.6408 84.7808C85.1759 84.7808 86.6035 85.7771 87.6601 87.4676C88.7144 89.1545 89.3747 91.5006 89.3747 94.1051Z" fill="#ED6F68" stroke="#1A0941" stroke-width="0.5"/>
<path d="M87.9785 94.1051C87.9785 96.7095 87.3182 99.0556 86.2638 100.743C85.2073 102.433 83.7797 103.429 82.2446 103.429C80.7095 103.429 79.2819 102.433 78.2253 100.743C77.171 99.0556 76.5107 96.7095 76.5107 94.1051C76.5107 91.5006 77.171 89.1545 78.2253 87.4676C79.2819 85.7771 80.7095 84.7808 82.2446 84.7808C83.7797 84.7808 85.2073 85.7771 86.2638 87.4676C87.3182 89.1545 87.9785 91.5006 87.9785 94.1051Z" fill="#FFA19B" stroke="#1A0941" stroke-width="0.5"/>
<defs>
<linearGradient id="paint0_linear_1_3" x1="73.9076" y1="49.7528" x2="73.9076" y2="77.8664" gradientUnits="userSpaceOnUse">
<stop stop-color="#E062FF"/>
<stop offset="1" stop-color="#625FFF"/>
</linearGradient>
<linearGradient id="paint1_linear_1_3" x1="57.6219" y1="77.9078" x2="57.6219" y2="106.021" gradientUnits="userSpaceOnUse">
<stop stop-color="#E062FF"/>
<stop offset="1" stop-color="#625FFF"/>
</linearGradient>
<linearGradient id="paint2_linear_1_3" x1="90.1933" y1="77.9078" x2="90.1933" y2="106.021" gradientUnits="userSpaceOnUse">
<stop stop-color="#E062FF"/>
<stop offset="1" stop-color="#625FFF"/>
</linearGradient>
<linearGradient id="paint3_linear_1_3" x1="57.6219" y1="21.5979" x2="57.6219" y2="49.7114" gradientUnits="userSpaceOnUse">
<stop stop-color="#E062FF"/>
<stop offset="1" stop-color="#625FFF"/>
</linearGradient>
<linearGradient id="paint4_linear_1_3" x1="41.3362" y1="49.7528" x2="41.3362" y2="77.8664" gradientUnits="userSpaceOnUse">
<stop stop-color="#E062FF"/>
<stop offset="1" stop-color="#625FFF"/>
</linearGradient>
<linearGradient id="paint5_linear_1_3" x1="25.0505" y1="77.9078" x2="25.0505" y2="106.021" gradientUnits="userSpaceOnUse">
<stop stop-color="#E062FF"/>
<stop offset="1" stop-color="#625FFF"/>
</linearGradient>
</defs>
</svg>
